<?xml version="1.0" encoding="UTF-8"?>
<svg xmlns="http://www.w3.org/2000/svg" version="1.1" viewBox="0 0 512 512">
  <!-- Generator: Adobe Illustrator 29.1.0, SVG Export Plug-In . SVG Version: 2.1.0 Build 142)  -->
  <defs>
    <style>
      .st0 {
        fill: #35bfe5;
      }

      .st1 {
        fill: #0e2328;
      }
    </style>
  </defs>
  <path class="st1" d="M442,0l-.8,1.5c-8.3,22.4-16.2,44.2-24,65.4s-15.1,41.1-21.9,59.5c-24.4,68.2-46.1,126.8-65.2,175.9-19.3,49.1-39.7,88.9-61.6,119.6-21.9,31.7-46.5,54.6-74,68.8-27.4,14.2-61.8,21.2-103.1,21.2h-1.5v-99.5h1.5c12.7,0,24-.6,33.8-1.5,10-.9,19.1-3,27.4-6.3,8.3-3.2,15.9-7.6,23-13.1,7-5.7,13.8-13.1,20-22.4,6.2-8.7,12.7-19.5,18.9-32.2,6.2-12.7,12.8-27.9,19.6-45.3,6.8-17.6,14.4-37.9,22.7-61,8.3-23.1,17.6-49.3,27.8-78.7,7.7-22,16.1-45.3,24.7-70.1s18.1-51.9,28.3-81.1V0h104.2,0Z"/>
  <ellipse class="st0" cx="144.2" cy="52.5" rx="52.5" ry="52.5"/>
</svg>