<?xml version="1.0" encoding="UTF-8"?>
<svg xmlns="http://www.w3.org/2000/svg" version="1.1" viewBox="0 0 200 200">
  <defs>
    <style>
      .cls-1 {
        fill: #6172f3;
      }
    </style>
  </defs>
  <!-- Generator: Adobe Illustrator 28.7.1, SVG Export Plug-In . SVG Version: 1.2.0 Build 142)  -->
  <g>
    <g id="Calque_1">
      <path class="cls-1" d="M0,180V20C2.6,9.3,9.5,2.8,20,0h160c10.5,2.8,17.3,9.3,20,20v160c-2.8,11.1-9.8,17.7-21,20H21c-11.1-2.4-18.2-8.9-21-20ZM42,67.7c-13.2,18.4-14.1,54.4,9.3,78.5,24.9,25.7,64.9,28,91.9,5,27.5-23.3,32.1-62.5,10.7-91.3-20.6-27.8-57.3-32-75.3-22.7,1.6,3.6,3.6,7.1,4.8,10.8.9,2.9,2.3,3.1,4.8,2.6,3.3-.7,6.6-1.3,9.9-1.4,35-1.1,60.7,32.5,50.8,66.3-7.1,24.2-31.2,39.5-57,36-24.4-3.3-43.9-24.9-43.7-49.6.1-8.8,2.7-17.5,4.2-26.8-2.8-2-6.7-4.8-10.6-7.6ZM135.3,100.1c0-19.9-15.9-35.9-35.8-36-19.7,0-36,16.1-36,35.9,0,19.9,16,35.6,36.1,35.5,20-.1,35.7-15.6,35.7-35.4ZM80.4,54.1c.2-11-8.1-19.6-18.9-19.7-11.1-.1-19.7,8.1-19.8,18.8,0,10.8,8.4,19.5,19.2,19.6,10.6.1,19.3-8.2,19.5-18.7Z"/>
    </g>
  </g>
</svg>