<?xml version="1.0" encoding="utf-8"?>
<svg version="1.1" id="pyper" xmlns="http://www.w3.org/2000/svg" xmlns:xlink="http://www.w3.org/1999/xlink" x="0px" y="0px"
	 viewBox="0 0 500 132" style="enable-background:new 0 0 500 132;" xml:space="preserve">
<style type="text/css">
	.st0{fill:#0E2328;}
	.st1{fill:#35BFE5;}
</style>
<path id="p" class="st0" d="M54.24,0C60.9,0,67.2,1.28,73.12,3.82
	c5.92,2.55,11.07,6.03,15.46,10.44c4.38,4.41,7.84,9.54,10.37,15.38c2.53,5.84,3.79,12.12,3.79,18.83c0,6.84-1.27,13.24-3.79,19.2
	c-2.53,5.97-5.99,11.16-10.37,15.57c-4.38,4.41-9.53,7.89-15.46,10.44c-5.92,2.55-12.22,3.82-18.88,3.82
	c-9.13,0-16.72-2.47-22.77-7.4v-0.18l9.26-17.03l0.19,0.19c3.33,1.49,6.73,2.24,10.18,2.24c3.58,0,6.97-0.69,10.18-2.07
	c3.21-1.37,6.02-3.29,8.42-5.73c2.41-2.44,4.29-5.29,5.65-8.54c1.36-3.25,2.04-6.76,2.04-10.52c0-3.63-0.68-7.04-2.04-10.23
	c-1.36-3.19-3.24-5.98-5.65-8.35s-5.22-4.26-8.42-5.63c-3.21-1.37-6.6-2.07-10.18-2.07c-3.7,0-7.13,0.68-10.27,2.05
	c-3.15,1.37-5.89,3.24-8.24,5.6c-2.35,2.37-4.2,5.14-5.55,8.31c-1.36,3.17-2.04,6.57-2.04,10.18V132H0V1.49h24.99v12.56
	C31.65,4.68,41.4,0,54.24,0z"/>
<path id="y" class="st0" d="M201.78,1.49l-0.19,0.37c-2.1,5.72-4.14,11.28-6.11,16.69c-1.98,5.41-3.83,10.47-5.55,15.19
	c-6.17,17.4-11.69,32.35-16.57,44.84c-4.88,12.49-10.09,22.65-15.64,30.48c-5.55,8.08-11.82,13.92-18.79,17.53
	c-6.97,3.6-15.71,5.41-26.19,5.41h-0.37v-25.36h0.37c3.21,0,6.08-0.13,8.61-0.37c2.53-0.25,4.84-0.78,6.94-1.58
	c2.1-0.81,4.04-1.93,5.83-3.36c1.79-1.43,3.49-3.33,5.09-5.69c1.6-2.24,3.21-4.97,4.81-8.2c1.6-3.23,3.27-7.08,5-11.56
	c1.73-4.47,3.64-9.66,5.74-15.57c2.1-5.9,4.44-12.58,7.03-20.04c1.97-5.59,4.07-11.56,6.29-17.9c2.22-6.34,4.63-13.24,7.22-20.69
	V1.49H201.78z"/>
<ellipse id="y-dot" class="st1" cx="126.11" cy="14.4" rx="13.33" ry="13.42"/>
<path id="p" class="st0" d="M263.42,0c6.66,0,12.96,1.28,18.88,3.82c5.92,2.55,11.08,6.03,15.46,10.44
	c4.38,4.41,7.84,9.54,10.37,15.38c2.53,5.84,3.79,12.12,3.79,18.83c0,6.84-1.27,13.24-3.79,19.2c-2.53,5.97-5.99,11.16-10.37,15.57
	c-4.38,4.41-9.53,7.89-15.46,10.44c-5.92,2.55-12.22,3.82-18.88,3.82c-9.13,0-16.72-2.47-22.77-7.4v-0.18l9.26-17.03l0.19,0.19
	c3.33,1.49,6.72,2.24,10.18,2.24c3.58,0,6.97-0.69,10.18-2.07c3.21-1.37,6.02-3.29,8.42-5.73c2.41-2.44,4.29-5.29,5.65-8.54
	c1.36-3.25,2.04-6.76,2.04-10.52c0-3.63-0.68-7.04-2.04-10.23c-1.36-3.19-3.24-5.98-5.65-8.35c-2.41-2.38-5.21-4.26-8.42-5.63
	c-3.21-1.37-6.6-2.07-10.18-2.07c-3.7,0-7.13,0.68-10.27,2.05s-5.89,3.24-8.24,5.6c-2.35,2.37-4.2,5.14-5.55,8.31
	c-1.36,3.17-2.04,6.57-2.04,10.18V132h-24.99V1.49h24.99v12.56C240.84,4.68,250.58,0,263.42,0z"/>
<path id="e" class="st0" d="M367.46,0c6.54,0,12.71,1.28,18.51,3.82c5.8,2.55,10.86,6,15.18,10.35c4.32,4.35,7.74,9.45,10.27,15.29
	c2.53,5.84,3.79,12.12,3.79,18.83c0,3.61-0.37,7.08-1.11,10.44l-0.18,0.37H366.9l-11.85-19.02h35.17c-1.73-5.22-4.6-9.51-8.61-12.86
	c-4.01-3.36-8.73-5.03-14.16-5.03c-3.33,0-6.48,0.68-9.44,2.05c-2.96,1.36-5.52,3.19-7.68,5.48c-2.16,2.29-3.86,5.02-5.09,8.17
	c-1.23,3.16-1.85,6.6-1.85,10.31c0,2.85,0.56,5.79,1.67,8.82c1.11,3.04,2.71,5.79,4.81,8.27c2.1,2.48,4.63,4.55,7.59,6.22
	c2.96,1.67,6.29,2.51,10,2.51c3.33,0,6.39-0.47,9.16-1.4s5.4-3.01,7.87-6.25l0.19-0.19l0.37,0.19l21.47,9.52l-0.37,0.38
	c-4.44,6.27-10.09,11.16-16.94,14.66c-6.85,3.51-14.1,5.26-21.75,5.26c-6.66,0-12.93-1.24-18.79-3.73
	c-5.86-2.49-10.95-5.9-15.27-10.25c-4.32-4.35-7.75-9.44-10.27-15.29c-2.53-5.84-3.79-12.05-3.79-18.64
	c0-6.71,1.26-12.99,3.79-18.83c2.53-5.84,5.95-10.94,10.27-15.29c4.32-4.35,9.41-7.8,15.27-10.35C354.53,1.28,360.79,0,367.46,0z"/>
<path id="r" class="st0" d="M500,5.22l-2.22,3.73l-9.44,16.97l-0.18-0.19c-4.07-2.36-8.45-3.54-13.14-3.54
	c-3.21,0-6.23,0.53-9.07,1.58c-2.84,1.06-5.37,2.55-7.59,4.47c-2.22,1.93-4.1,4.2-5.65,6.81c-1.54,2.61-2.56,5.41-3.05,8.39v51.27
	h-25.18V1.49h25.18v12.12C456.19,4.54,465.75,0,478.34,0c7.4,0,14.56,1.74,21.47,5.22H500z"/>
<g>
</g>
<g>
</g>
<g>
</g>
<g>
</g>
<g>
</g>
<g>
</g>
<g>
</g>
<g>
</g>
<g>
</g>
<g>
</g>
<g>
</g>
<g>
</g>
<g>
</g>
<g>
</g>
<g>
</g>
</svg>
