<?xml version="1.0" encoding="utf-8"?>
<!-- Generator: Adobe Illustrator 27.9.0, SVG Export Plug-In . SVG Version: 6.00 Build 0)  -->
<svg version="1.1" id="Calque_1" xmlns="http://www.w3.org/2000/svg" xmlns:xlink="http://www.w3.org/1999/xlink" x="0px" y="0px"
	 viewBox="0 0 512 512" style="enable-background:new 0 0 512 512;" xml:space="preserve">
<style type="text/css">
	.st0{fill-rule:evenodd;clip-rule:evenodd;fill:#10A58E;}
	.st1{fill-rule:evenodd;clip-rule:evenodd;fill:#FFFFFF;}
</style>
<rect class="st0" width="512" height="512"/>
<path class="st1" d="M290.7,189.3c-11.1-5.3-23.3-8.1-35.7-8.1c-45.7,0-82.7,37-82.7,82.7s37,82.7,82.7,82.7
	c31.1,0,58.2-17.2,72.3-42.5L307.4,293c-10.6,19-30.6,30.8-52.4,30.8c-33.1,0-59.9-26.8-59.9-59.9S222,204,255,204
	c9,0,17.8,2,25.9,5.9L290.7,189.3L290.7,189.3z M330.3,81.1v195.8h-23.6v-204C290.5,68.4,273.5,66,256,66C151.1,66,66,151.1,66,256
	s85.1,190,190,190s190-85.1,190-190C446,177.4,398.3,110,330.3,81.1L330.3,81.1z"/>
</svg>
